<?xml version="1.0" encoding="utf-8"?>
<!-- Generator: Adobe Illustrator 16.0.0, SVG Export Plug-In . SVG Version: 6.00 Build 0)  -->
<!DOCTYPE svg PUBLIC "-//W3C//DTD SVG 1.1//EN" "http://www.w3.org/Graphics/SVG/1.1/DTD/svg11.dtd">
<svg version="1.1" id="Layer_1" xmlns="http://www.w3.org/2000/svg" xmlns:xlink="http://www.w3.org/1999/xlink" x="0px" y="0px"
	 width="100px" height="58px" viewBox="63.244 41.497 100 58" enable-background="new 63.244 41.497 100 58" xml:space="preserve">
<g>
	<g>
		<path fill="#FEFBE0" d="M81.73,99.49c-0.214-0.026-0.416-0.113-0.581-0.256c-0.219-0.187-0.354-0.458-0.373-0.747L80.49,94.03
			c-0.006-0.09,0.001-0.183,0.021-0.277l-3.615-12.395l8.181,6.567l4.151-5.58l0.008,0.008l0.001-0.002l0.206,0.197l4.818,4.601
			l6.96-7.85l-1.486,12.864c0.032,0.087,0.052,0.174,0.059,0.259l0.376,4.446c0.05,0.594-0.393,1.117-0.984,1.167l-17.243,1.458
			C81.873,99.498,81.802,99.498,81.73,99.49z M82.861,97.25l15.069-1.275l-0.194-2.296l-15.023,1.271L82.861,97.25z M82.527,92.799
			l15.067-1.274l0.903-5.844l-4.008,4.522l-4.999-4.772l-4.125,5.544l-4.712-3.782L82.527,92.799z"/>
	</g>
</g>
<g>
	<g>
		<path fill="#FEFBE0" d="M100.871,80.086l-6.593,7.435l-5.012-4.788l-0.001,0.002h-0.002l-4.137,5.562l-7.749-6.223l3.406,11.673
			c-0.024,0.087-0.038,0.178-0.031,0.268l0.286,4.457c0.015,0.22,0.116,0.426,0.283,0.566c0.167,0.145,0.384,0.216,0.604,0.196
			l17.241-1.458c0.452-0.038,0.787-0.434,0.75-0.884l-0.377-4.447c-0.009-0.09-0.032-0.171-0.064-0.248L100.871,80.086z
			 M85.32,90.606l4.139-5.564l5.014,4.788l4.416-4.98l-1.068,6.916l-15.473,1.31l-2.217-6.639L85.32,90.606z M98.21,96.21
			L82.619,97.53l-0.182-2.818l15.535-1.313L98.21,96.21z"/>
	</g>
</g>
<g>
	<g>
		<polygon fill="#FEFBE0" points="84.458,83.276 86.162,84.708 87.043,83.663 84.296,81.352 81.968,84.086 83.01,84.968 		"/>
	</g>
</g>
<g>
	<g>
		<circle fill="#FEFBE0" cx="101.23" cy="79.432" r="1.248"/>
	</g>
</g>
<g>
	<g>
		<circle fill="#FEFBE0" cx="84.249" cy="80.544" r="1.247"/>
	</g>
</g>
<g>
	<g>
		<path fill="#FEFBE0" d="M78.275,81.616c-0.079,0.686-0.697,1.177-1.381,1.098c-0.684-0.079-1.175-0.697-1.096-1.381
			c0.079-0.686,0.697-1.177,1.381-1.098C77.863,80.312,78.353,80.932,78.275,81.616z"/>
	</g>
</g>
<g>
	<g>
		<path fill="#FEFBE0" d="M98.668,96.278l-0.193-2.737c0.635-0.05,2.467-0.383,3.263-1.332c0.301-0.358,0.418-0.776,0.367-1.312
			c-0.1-1.016-0.492-1.287-0.62-1.377c-0.594-0.412-1.59-0.267-1.824-0.204l-0.7-2.652c0.239-0.063,2.382-0.582,4.09,0.604
			c0.712,0.495,1.601,1.481,1.785,3.361c0.124,1.269-0.223,2.428-1.003,3.354C102.146,95.979,99.02,96.252,98.668,96.278z"/>
	</g>
</g>
<g>
	<path fill="#FEFBE0" d="M113.462,63.001c-0.829,1.496-3.146,2.326-5.423,2.194c-3.262-0.171-5.425-2.929-4.893-7.262
		c0.583-4.688,7.137-8.022,9.465-4.828c1.696,2.316-0.542,6.697-4.396,8.478c-0.068,0.028-0.138,0.054-0.206,0.082
		c0.935,2.101,2.925,2.951,4.673,0.724C113.511,61.36,114.165,61.746,113.462,63.001z M107.6,60.237
		c2.354-1.862,2.959-5.708,2.225-6.744c-0.785-1.08-2.089,0.748-2.342,5.019C107.469,59.122,107.5,59.704,107.6,60.237z"/>
	<path fill="#FEFBE0" d="M129.277,62.618c-0.905,1.01-2.687,1.763-4.539,1.679c-1.315-0.092-2.157-0.887-2.693-2.145
		c-0.165,0.385-0.355,0.723-0.599,0.993c-0.838,0.958-1.882,1.53-3.267,1.466c-2.792-0.149-4.589-3.043-4.054-7.332
		c0.568-4.5,4.372-6.372,6.724-5.31c-0.023-4.255,0.337-9.586,0.816-9.8c3.838-1.664,5.395-0.158,4.337,3.574
		c-1.637,5.916-1.13,12.953-0.258,15.221c0.329,0.872,1.537,1.973,2.567,0.7C129.429,60.27,130.777,60.967,129.277,62.618z
		 M121.22,58.665c-0.175-1.464-0.242-3.122-0.313-4.826c-0.01-0.186-0.021-0.396-0.033-0.606c-1.435-0.552-2.692,1.669-2.877,4.651
		c-0.204,3.497,1.46,5.253,2.3,4.364C120.959,61.534,121.167,59.37,121.22,58.665z"/>
	<path fill="#FEFBE0" d="M132.148,53.686c-0.864,5.499,0.771,9.689,0.222,9.884c-3.628,1.252-4.312-0.979-4.757-9.001
		c-0.087-1.587-0.006-3.486,0.404-3.696C131.001,49.421,132.757,49.863,132.148,53.686z M128.017,48.346
		c-0.863-0.795-0.456-1.939,1.379-3c0.929-0.542,2.126-1.312,3.136,0.435C134.057,48.411,130.044,50.269,128.017,48.346z"/>
</g>
<g>
	<path fill="#FEFBE0" d="M115.205,80.562c2.709,0.495,4.321,0.331,4.391,0.659c0.674,2.361,0.16,3.574-1.288,3.572
		c-0.655,0-1.589-0.166-2.595-0.447c3.568,4.84,4.753,10.775,2.858,12.921c-2.059,2.288-5.727,1.909-6.796-1.338
		c-1.046-3.201-0.994-8.691-0.989-12.358c0-0.396,0.025-0.816,0.025-1.238c-0.678-0.422-1.213-0.865-1.517-1.262
		c-0.676-0.959-0.138-1.916,0.354-2.267c0.047-0.023,0.631,0.212,1.423,0.539c0.33-2.477,0.965-5.115,2.017-7.168
		c1.805-3.502,5.426-5.109,7.245-2.654C122.222,72.068,120.554,79.027,115.205,80.562z M114.752,87.149
		c0.02,3.316,0.179,7.195,0.458,8.129c0.465,1.45,1.703,1.497,2.24,0.541C118.084,94.65,116.969,90.165,114.752,87.149z
		 M119.162,70.943c-0.628-0.912-2.078,1.096-2.758,2.448c-0.82,1.657-1.102,3.06-1.315,5.933
		C119.763,78.068,120.306,72.556,119.162,70.943z"/>
	<path fill="#FEFBE0" d="M124.541,83.961c-1.173,5.438,0.222,9.716-0.339,9.88c-3.691,1.048-4.25-1.219-4.238-9.256
		c0.002-1.589,0.188-3.479,0.61-3.667C123.635,79.638,125.363,80.177,124.541,83.961z M120.719,78.398
		c-0.816-0.844-0.349-1.965,1.544-2.92c0.959-0.489,2.198-1.189,3.106,0.61C126.744,78.8,122.631,80.431,120.719,78.398z"/>
	<path fill="#FEFBE0" d="M141.325,92.88c-0.979,0.957-2.921,1.539-4.72,1.209c-1.169-0.187-2.288-1.171-2.683-2.432
		c-0.42-1.402-1.048-2.454-2.312-2.454c-1.003-0.002-1.518,0.393-1.589,1.141c0.067,1.403,0.139,1.893,0.16,2.734
		c0.022,0.676-1.684,1.631-3.388,0.462c-0.561-0.373-0.646-6.798-0.638-12.755c-0.305-0.071-0.584-0.187-0.842-0.327
		c-1.633-0.938-1.329-2.244-0.977-2.781c0.257-0.42,0.277,0.771,1.818,1.591c0.002-0.164,0.002-0.327,0.002-0.491
		c0.01-6.308,2.045-11.141,5.248-12.936c3.039-1.678,6.28,1.83,4.43,7.2c-1.36,3.9-3.605,6.28-5.826,7.305
		c-0.048,1.541-0.073,3.153-0.075,4.788c-0.002,0.842,0.021,1.587,0.021,2.242c0.445-0.748,1.264-1.984,2.598-4.062
		c0.888-1.399,1.568-2.986,2.153-3.033c3.644-0.347,5.113,1.805,2.282,4.465c-0.795,0.722-1.591,1.352-2.384,1.889
		c1.938,0.493,2.823,1.872,3.335,4.162c0.349,1.565,1.608,2.151,2.593,1.056C141.724,90.544,142.891,91.319,141.325,92.88z
		 M130.13,77.964c1.614-1.541,2.995-3.944,3.44-5.649c0.894-3.362-0.087-5.046-1.514-3.529
		C130.935,69.976,130.371,73.479,130.13,77.964z"/>
	<path fill="#FEFBE0" d="M154.497,92.898c-0.959,0.957-2.385,1.538-4.182,1.209c-1.402-0.234-2.429-0.938-3.059-2.199
		c-0.187,0.351-0.421,0.678-0.749,1.003c-2.642,2.66-7.289,1.37-6.794-2.108c0.47-3.201,4.21-4.06,6.825-4.525
		c0.098-2.941,0.379-4.134-0.905-4.417c-1.05-0.234-2.104,0.208-2.267,0.909c-0.235,0.911,1.003,0.701,1.121,0.937
		c0.535,1.191-0.659,3.386-2.809,2.706c-1.704-0.517-1.866-2.549-0.063-4.392c1.824-1.868,8.646-2.536,9.226,0.852
		c0.395,2.312-0.522,5.814,0.27,8.06c0.304,0.911,1.377,2.175,2.477,0.937C154.78,90.561,156.09,91.333,154.497,92.898z
		 M146.537,88.425c-0.021-0.21-0.021-0.421-0.021-0.631c0-0.164,0-0.328,0-0.489c-1.611,0.604-2.944,1.583-3.11,2.915
		c-0.283,2.616,1.143,2.547,2.007,1.707c0.844-0.792,1.102-2.194,1.104-3.363C146.515,88.518,146.515,88.472,146.537,88.425z"/>
</g>
<g>
	<path fill="#FEFBE0" d="M159.677,67.066c-1.091,0.803-2.587,1.164-4.316,0.57c-2.403-0.816-3.407-2.906-2.808-6.833
		c0.604-3.972,0.129-4.563-0.725-4.08c-0.514,0.276-1.468,1.406-2.037,2.666c-0.561,2.585-0.792,4.866-0.566,6.341
		c0.113,0.655-1.912,1.386-3.364-0.088c-0.57-0.607-0.037-5.488,0.845-10.032c0.685-3.558,2.648-11.151,3.236-11.297
		c4.077-1.007,5.209,0.701,3.564,4.207c-1.06,2.297-2.009,4.797-2.758,7.235c0.788-0.826,1.585-1.412,2.169-1.678
		c3.384-1.421,6.061-0.068,4.791,3.59c-0.713,2.042-1.387,5.531-1.142,7.033c0.256,1.717,1.342,2.19,2.503,1.232
		C160.449,64.798,161.483,65.759,159.677,67.066z"/>
</g>
<g>
	<path fill="#FEFBE0" d="M138.08,73.529c-0.365-0.729,0.422-4.201,9.206-4.041c7.572,0.123,11.336,1.719,13.503,4.499
		c1.498,1.913,1.361,5.131-0.104,6.489c-0.123,0.129-0.992-1.452-2.116-2.563c-1.501-1.505-5.081-4.52-11.361-4.917
		C139.375,72.508,138.131,73.64,138.08,73.529z"/>
</g>
<g>
	<path fill="#FEFBE0" d="M137.772,54.964c-0.025,2.83,6.857,1.892,6.821,5.977c-0.023,2.752-3.576,4.845-6.851,4.497
		c-2.059-0.225-3.495-1.518-3.828-2.773c-0.609-2.272,3.78-3.386,3.466-1.046c-0.219,1.599,0.465,2.591,1.27,2.675
		c1.599,0.181,2.856-0.32,2.875-2.356c0.035-3.866-6.85-1.291-6.808-5.976c0.018-2.087,3.138-4.492,6.271-4.144
		c1.331,0.14,2.874,0.819,3.378,1.733c1.512,2.702-2.471,2.858-2.57,1.27c-0.067-1.191-0.817-1.774-1.699-1.872
		C138.636,52.796,137.786,53.594,137.772,54.964z"/>
</g>
<g>
	<path fill="#FEFBE0" d="M101.222,55.382c2.194,8.03-4.893,12.422-7.132,12.245c-1.317-0.084-2.539-0.717-3.329-1.85
		c-1.473,1.566-3.224,2.547-4.612,2.467c-1.809-0.07-3.398-1.212-4.028-3.295c-1.261-4.167-0.688-9.459-0.493-9.662
		c2.921-2.218,4.781-1.191,4.378,2.682c-0.253,2.48-0.219,4.704,0.033,5.854c0.407,1.914,1.267,3.041,1.97,2.424
		c0.638-0.518,1.3-1.67,1.776-3.066c-0.821-3.637-0.572-7.663-0.099-7.911c2.518-1.368,3.733-0.501,3.856,1.388
		c0.421,1.794,0.209,3.591-0.391,5.208c0.038,0.488,0.074,0.954,0.178,1.391c0.385,1.938,1.917,2.969,2.646,2.373
		c0.88-0.725,2.552-3.033,2.268-6.689c-0.277-3.563-2.365-4.503-1.059-5.19C98.96,52.816,100.734,53.616,101.222,55.382z"/>
</g>
<g>
	<path fill="#FEFBE0" d="M112.289,70.638c0.154,0.852-2.124-0.455-7.12,1.763c-10.8,4.773-22.004,4.096-29.31-2.403
		c-1.973,1.5-4.365,2.549-6.478,3.05c-5.001,1.188-7.847-3.322-5.019-6.371c2.009-2.157,6.946-2.897,10.505-1.462
		c0.034-0.465,0.017-0.94-0.096-1.418c-1.155-4.864-8.043-3.036-9.451-8.968c-0.832-3.5,2.793-6.738,7.365-6.791
		c2.851-0.029,5.397,1.191,6.154,2.764c1.467,2.942-0.934,5.168-3.24,4.251c-0.316-0.117-0.72-5.159-3.382-5.343
		c-2.923-0.171-4.528,1.458-4.091,3.299c1.063,4.478,10.126,1.797,11.664,8.275c0.572,2.409-0.139,4.569-1.515,6.362
		c7.9,6.478,15.408,4.023,26.534-1.092C109.143,64.567,111.857,67.908,112.289,70.638z M69.769,70.531
		c1.568-0.371,3.041-1.348,4.01-2.632c-3.267-3.234-6.835-1.786-8.173-0.341C63.729,69.564,65.927,71.442,69.769,70.531z"/>
</g>
<g>
	<g>
		<polygon fill="#FEFBE0" points="94.075,82.41 95.778,83.842 96.659,82.798 93.911,80.483 91.584,83.222 92.628,84.102 		"/>
	</g>
</g>
<g>
	<g>
		<circle fill="#FEFBE0" cx="93.866" cy="79.677" r="1.247"/>
	</g>
</g>
<g>
	<g>
		<circle fill="#FEFBE0" cx="89.205" cy="81.683" r="1.248"/>
	</g>
</g>
</svg>
